<?xml version="1.0" encoding="UTF-8" standalone="no"?>
<!-- Created with Inkscape (http://www.inkscape.org/) -->

<svg
   xmlns:dc="http://purl.org/dc/elements/1.1/"
   xmlns:cc="http://creativecommons.org/ns#"
   xmlns:rdf="http://www.w3.org/1999/02/22-rdf-syntax-ns#"
   xmlns:svg="http://www.w3.org/2000/svg"
   xmlns="http://www.w3.org/2000/svg"
   xmlns:sodipodi="http://sodipodi.sourceforge.net/DTD/sodipodi-0.dtd"
   xmlns:inkscape="http://www.inkscape.org/namespaces/inkscape"
   width="206.03917mm"
   height="48.377243mm"
   viewBox="0 0 730.06005 171.41543"
   id="svg2"
   version="1.1"
   inkscape:version="0.91 r13725"
   sodipodi:docname="KinecticLogo.svg">
  <defs
     id="defs4" />
  <sodipodi:namedview
     id="base"
     pagecolor="#ffffff"
     bordercolor="#666666"
     borderopacity="1.0"
     inkscape:pageopacity="0.0"
     inkscape:pageshadow="2"
     inkscape:zoom="0.87684826"
     inkscape:cx="378.70659"
     inkscape:cy="-42.051941"
     inkscape:document-units="px"
     inkscape:current-layer="layer1"
     showgrid="false"
     inkscape:snap-bbox="true"
     inkscape:bbox-nodes="true"
     inkscape:object-paths="true"
     inkscape:object-nodes="true"
     inkscape:snap-global="true"
     showguides="true"
     inkscape:guide-bbox="true"
     inkscape:window-width="1440"
     inkscape:window-height="897"
     inkscape:window-x="1912"
     inkscape:window-y="-8"
     inkscape:window-maximized="1"
     fit-margin-top="0"
     fit-margin-left="0"
     fit-margin-right="0"
     fit-margin-bottom="0">
    <sodipodi:guide
       position="-460.35437,-1962.7401"
       orientation="0,1"
       id="guide4342" />
    <sodipodi:guide
       position="-532.77283,-2282.7831"
       orientation="0,1"
       id="guide4344" />
    <sodipodi:guide
       position="-2175.2529,-4681.6101"
       orientation="1,0"
       id="guide4387" />
    <sodipodi:guide
       position="-2123.9482,-4722.3879"
       orientation="0,1"
       id="guide4389" />
  </sodipodi:namedview>
  <metadata
     id="metadata7">
    <rdf:RDF>
      <cc:Work
         rdf:about="">
        <dc:format>image/svg+xml</dc:format>
        <dc:type
           rdf:resource="http://purl.org/dc/dcmitype/StillImage" />
        <dc:title></dc:title>
      </cc:Work>
    </rdf:RDF>
  </metadata>
  <g
     inkscape:label="Layer 1"
     inkscape:groupmode="layer"
     id="layer1"
     transform="translate(-36.355983,-145.81641)">
    <path
       style="font-style:normal;font-weight:normal;font-size:457.37811279px;line-height:125%;font-family:sans-serif;letter-spacing:0px;word-spacing:0px;fill:#000000;fill-opacity:1;stroke:none;stroke-width:1px;stroke-linecap:butt;stroke-linejoin:miter;stroke-opacity:1"
       d="m 138.86217,145.81641 c -11.75026,0 -20.90449,11.73219 -20.5929,21.2761 0.31158,9.54394 6.5382,15.12717 8.20764,16.4279 1.66946,1.30073 1.27072,3.21915 -0.33968,3.03678 -1.61041,-0.18245 -6.65961,0.62738 -11.2735,1.35815 -4.61389,0.73069 -12.17603,0.71731 -18.007204,-1.92995 -5.831203,-2.64725 -12.506512,-5.75192 -15.586672,-8.77614 -3.080159,-3.02431 -4.963552,-7.67506 -8.716328,-8.25099 -3.752805,-0.576 -9.456573,3.07915 -9.582808,8.87217 -0.126235,5.79297 1.985777,10.30669 5.97588,12.40448 3.990103,2.09767 9.405059,1.66629 13.009742,2.54345 3.604683,0.87718 4.19252,3.09036 12.299664,7.44762 8.107146,4.35723 15.006196,2.43041 17.299866,12.39844 2.29367,9.96791 -2.45657,19.96205 -7.69621,27.34856 -5.239669,7.38654 -21.861901,4.13593 -27.625674,11.54239 -5.763744,7.4064 -23.26548,32.95178 -25.070702,38.89753 -1.805249,5.94575 -18.010419,7.77624 -14.240588,19.23695 3.769831,11.46073 24.131344,7.48025 29.875,3.83191 5.743628,-3.64832 9.292071,-25.88515 13.772505,-38.72852 4.480433,-12.84336 21.647149,-17.8296 33.498389,-17.95232 11.85124,-0.12273 19.61188,3.67277 23.70816,10.33294 4.09627,6.6602 -1.42234,22.65086 3.25133,30.78208 4.67365,8.13128 12.21398,18.00349 18.22067,18.69808 6.00669,0.69448 8.877,-0.64233 9.31721,-5.88478 0.44021,-5.24254 -5.57497,-11.91303 -8.79261,-20.03099 -3.21763,-8.11791 -1.69515,-17.19127 -4.44432,-26.73341 -2.74916,-9.54207 -12.57563,-14.03833 -14.3207,-23.08588 -1.74504,-9.04754 -1.27441,-15.79491 7.46573,-21.8007 8.74015,-6.00579 10.98148,-6.98362 18.29859,-8.14783 7.31711,-1.16421 14.58165,-0.50143 18.3798,-1.89648 3.79815,-1.39502 5.65577,-1.62919 5.47652,-8.93144 -0.0987,-4.01696 -4.51836,-7.75355 -6.90711,-7.18916 -2.38874,0.56445 -4.14972,1.89793 -6.44176,4.69455 -2.29204,2.79656 -5.45547,1.65434 -9.52848,2.07702 -4.07304,0.4227 -13.6164,-0.0105 -18.72222,-2.40188 -5.10583,-2.39097 -6.09663,-4.64568 -7.85644,-6.01319 -1.75985,-1.36755 -1.50567,-3.43938 0.66727,-3.50925 9.03367,-0.29032 19.35088,-9.03002 18.98069,-20.66809 -0.37017,-11.63805 -10.20849,-21.2761 -21.95875,-21.2761 z m 405.99587,40.62609 c -6.40015,0 -12.25622,0.69001 -17.56874,2.07043 -5.27072,1.33859 -9.99769,3.22098 -14.18079,5.64718 -4.14126,2.4262 -7.75931,5.31278 -10.85479,8.65926 -3.05366,3.34648 -5.6059,7.02725 -7.65561,11.04303 -2.00788,3.97394 -3.51337,8.21982 -4.51729,12.73756 -1.00396,4.47591 -1.50634,9.07743 -1.50634,13.80433 0,5.89817 0.89949,11.25243 2.69822,16.06299 1.84057,4.76873 4.47622,8.86842 7.90637,12.29856 3.43015,3.43014 7.63401,6.08599 12.61191,7.96839 4.97787,1.84056 10.60431,2.7613 16.87895,2.7613 4.68509,0 8.88895,-0.35564 12.61191,-1.06677 3.76481,-0.66929 7.19465,-1.65221 10.29015,-2.94897 l 4.26707,-19.13818 c -1.46408,0.75296 -3.01211,1.46424 -4.6435,2.13354 -1.58959,0.6693 -3.2838,1.27585 -5.08253,1.81965 -1.79873,0.50197 -3.70184,0.92034 -5.70972,1.25499 -2.0079,0.29282 -4.16247,0.439 -6.46319,0.439 -3.63927,0 -6.92296,-0.50182 -9.85115,-1.50577 -2.92816,-1.04577 -5.43783,-2.55179 -7.52938,-4.51785 -2.09154,-2.00788 -3.70175,-4.47555 -4.83118,-7.40372 -1.12943,-2.92817 -1.69452,-6.29585 -1.69452,-10.10247 0,-4.60141 0.73198,-8.97274 2.19609,-13.11401 1.46408,-4.14126 3.61865,-7.78059 6.46317,-10.91791 2.84449,-3.13732 6.33709,-5.62627 10.47835,-7.46683 4.1831,-1.88239 8.99408,-2.82331 14.43211,-2.82331 2.34253,0 4.49656,0.16745 6.4626,0.5021 2.00791,0.33465 3.86957,0.77374 5.58464,1.31755 1.71506,0.50197 3.28382,1.08725 4.70607,1.75654 1.46408,0.6693 2.82336,1.33858 4.07829,2.00788 l 4.20397,-19.20019 c -1.3386,-0.46014 -2.88607,-0.92051 -4.64297,-1.38065 -1.71506,-0.50197 -3.59746,-0.94107 -5.64717,-1.31755 -2.04971,-0.41831 -4.20431,-0.75267 -6.46317,-1.00366 -2.25888,-0.25098 -4.60163,-0.37644 -7.02783,-0.37644 z m 197.77686,0 c -6.40015,0 -12.25621,0.69001 -17.56874,2.07043 -5.27071,1.33859 -9.99769,3.22098 -14.18078,5.64718 -4.14126,2.4262 -7.75932,5.31278 -10.85482,8.65926 -3.05364,3.34648 -5.60587,7.02725 -7.65559,11.04303 -2.00787,3.97394 -3.51337,8.21982 -4.51729,12.73756 -1.00395,4.47591 -1.50634,9.07743 -1.50634,13.80433 0,5.89817 0.89949,11.25243 2.69823,16.06299 1.84053,4.76873 4.47622,8.86842 7.90637,12.29856 3.43012,3.43014 7.634,6.08599 12.6119,7.96839 4.97788,1.84056 10.60432,2.7613 16.87896,2.7613 4.68508,0 8.88894,-0.35564 12.61191,-1.06677 3.76477,-0.66929 7.19464,-1.65221 10.29014,-2.94897 l 4.26707,-19.13818 c -1.46408,0.75296 -3.01211,1.46424 -4.6435,2.13354 -1.58958,0.6693 -3.2838,1.27585 -5.08253,1.81965 -1.79873,0.50197 -3.70184,0.92034 -5.70974,1.25499 -2.00788,0.29282 -4.16245,0.439 -6.46317,0.439 -3.6393,0 -6.92295,-0.50182 -9.85114,-1.50577 -2.92816,-1.04577 -5.43783,-2.55179 -7.52938,-4.51785 -2.09155,-2.00788 -3.70176,-4.47555 -4.83118,-7.40372 -1.12943,-2.92817 -1.69453,-6.29585 -1.69453,-10.10247 0,-4.60141 0.73199,-8.97274 2.19609,-13.11401 1.46408,-4.14126 3.61865,-7.78059 6.46317,-10.91791 2.84449,-3.13732 6.3371,-5.62627 10.47836,-7.46683 4.18309,-1.88239 8.99407,-2.82331 14.4321,-2.82331 2.34253,0 4.49656,0.16745 6.46261,0.5021 2.0079,0.33465 3.86954,0.77374 5.58463,1.31755 1.71506,0.50197 3.28383,1.08725 4.70607,1.75654 1.46408,0.6693 2.82336,1.33858 4.0783,2.00788 l 4.20397,-19.20019 c -1.33861,-0.46014 -2.88608,-0.92051 -4.64297,-1.38065 -1.71506,-0.50197 -3.59746,-0.94107 -5.64718,-1.31755 -2.04971,-0.41831 -4.2043,-0.75267 -6.46316,-1.00366 -2.25889,-0.25098 -4.60164,-0.37644 -7.02784,-0.37644 z m -533.28206,1.50577 -19.13763,89.97839 20.45572,0 9.09771,-43.29521 0.25133,0 c 0.12549,0.50197 0.3344,1.21326 0.62722,2.13354 0.29282,0.87845 0.60646,1.67319 0.9411,2.38432 0.37648,1.0876 1.04577,2.65635 2.00788,4.70607 l 3.38853,6.7765 c 1.29676,2.50986 2.65604,5.14553 4.0783,7.90638 1.42225,2.71901 2.76136,5.33341 4.01629,7.84327 1.29676,2.50985 2.42587,4.78934 3.38798,6.83906 0.96211,2.04971 1.63139,3.61847 2.00787,4.70607 l 24.65969,0 c -0.5438,-1.38042 -1.44327,-3.28354 -2.6982,-5.70973 -1.25493,-2.46803 -2.69822,-5.16643 -4.32963,-8.0946 -1.58958,-2.97 -3.30451,-6.04422 -5.14507,-9.22338 -1.79873,-3.22098 -3.51421,-6.29575 -5.14562,-9.22392 -1.58958,-2.97 -3.0116,-5.6684 -4.26653,-8.0946 -1.25492,-2.46803 -2.15439,-4.39187 -2.6982,-5.77229 1.00395,-1.25493 2.5727,-3.03314 4.70608,-5.33384 2.13338,-2.34254 4.53887,-4.91494 7.21605,-7.71761 2.71901,-2.84451 5.5636,-5.79327 8.5336,-8.84693 3.01183,-3.0955 5.85586,-6.04481 8.53304,-8.84749 2.71902,-2.8445 5.14523,-5.4169 7.27861,-7.7176 2.13338,-2.34254 3.70213,-4.14147 4.70607,-5.3964 l -24.7848,0 c -0.75295,1.0876 -1.98679,2.63508 -3.70186,4.64296 -1.67324,1.96606 -3.59763,4.18337 -5.77284,6.65139 -2.13338,2.4262 -4.39214,4.97787 -6.7765,7.65505 -2.38437,2.67718 -4.6644,5.24958 -6.83961,7.71761 -2.13338,2.4262 -4.0785,4.6435 -5.8354,6.65139 -1.71507,1.96606 -2.99091,3.47207 -3.82753,4.51785 -0.37647,0.50197 -0.8783,1.12925 -1.50576,1.88221 -0.58564,0.75295 -1.10874,1.44296 -1.56888,2.07043 l -0.25078,0 8.84749,-41.78889 -20.45572,0 z m 83.45266,0 -19.01196,89.97839 20.45517,0 19.01252,-89.97839 -20.45573,0 z m 40.66012,0 -19.0125,89.97839 19.0125,0 11.48256,-53.71101 c 0.46016,-1.8824 0.8158,-3.78551 1.06678,-5.70974 0.25098,-1.92422 0.48064,-3.66043 0.68978,-5.20818 l 0.377,0 c 0.12547,0.50197 0.31366,1.06653 0.56464,1.69399 0.25101,0.62747 0.52264,1.29675 0.81546,2.00788 l 0.87853,2.00787 c 0.29281,0.66929 0.56447,1.25512 0.81546,1.75709 l 28.17333,57.1621 18.5104,0 19.01197,-89.97839 -19.13765,0 -11.42002,53.71101 c -0.12547,0.58563 -0.27166,1.25492 -0.439,2.00787 -0.12547,0.75296 -0.25092,1.52697 -0.37643,2.32176 -0.1255,0.79479 -0.23021,1.58953 -0.31388,2.38432 -0.0837,0.75295 -0.14638,1.44296 -0.18822,2.07043 l -0.25078,0 c -0.12548,-0.50197 -0.33496,-1.0878 -0.62778,-1.7571 -0.25098,-0.66929 -0.54388,-1.33857 -0.87853,-2.00787 -0.29282,-0.71113 -0.60645,-1.38041 -0.9411,-2.00787 -0.29282,-0.6693 -0.54374,-1.23385 -0.75289,-1.69399 l -26.98091,-55.02856 -20.07872,0 z m 102.77851,0 -19.13761,89.97839 53.96179,0 3.51419,-16.43943 -33.56975,0 4.39221,-20.20439 29.17754,0 3.57619,-16.56509 -29.30265,0 4.26708,-20.26695 31.43563,0 3.51419,-16.50253 -51.82881,0 z m 141.24253,0 -3.57673,16.50253 25.66335,0 -15.49832,73.47586 20.39261,0 15.56086,-73.47586 25.34949,0 3.57672,-16.50253 -71.46798,0 z m 83.76657,0 -19.01254,89.97839 20.45574,0 19.01197,-89.97839 -20.45517,0 z"
       id="text4399"
       inkscape:connector-curvature="0"
       inkscape:export-xdpi="78.900002"
       inkscape:export-ydpi="78.900002" />
  </g>
</svg>
